<?xml version="1.0" encoding="utf-8"?>
<!-- Generator: Adobe Illustrator 17.0.0, SVG Export Plug-In . SVG Version: 6.00 Build 0)  -->
<!DOCTYPE svg PUBLIC "-//W3C//DTD SVG 1.1//EN" "http://www.w3.org/Graphics/SVG/1.1/DTD/svg11.dtd">
<svg version="1.1" id="Layer_1" xmlns="http://www.w3.org/2000/svg" xmlns:xlink="http://www.w3.org/1999/xlink" x="0px" y="0px"
	 width="20px" height="20px" viewBox="5 5 20 20" enable-background="new 5 5 20 20" xml:space="preserve">
<path fill="#575860" d="M19.724,25.338c-1.286,0-2.387-0.458-3.302-1.373c-0.915-0.915-1.373-2.016-1.373-3.302
	s0.458-2.387,1.373-3.302c0.915-0.915,2.016-1.373,3.302-1.373c1.286,0,2.387,0.458,3.302,1.373s1.373,2.016,1.373,3.302
	s-0.458,2.387-1.373,3.302C22.111,24.881,21.01,25.338,19.724,25.338z M21.159,23.162l0.693-0.693l-1.855-1.855v-2.77h-0.965v3.116
	L21.159,23.162z M7.085,24.003c-0.412,0-0.763-0.144-1.051-0.433c-0.289-0.289-0.433-0.639-0.433-1.051V8.124
	c0-0.412,0.128-0.763,0.383-1.051C6.24,6.784,6.459,6.64,6.64,6.64h4.996c0.115-0.577,0.4-1.051,0.853-1.422
	c0.453-0.371,0.977-0.556,1.571-0.556c0.594,0,1.117,0.185,1.571,0.556c0.453,0.371,0.738,0.845,0.853,1.422h4.996
	c0.412,0,0.763,0.144,1.051,0.433c0.289,0.289,0.433,0.639,0.433,1.051v7.296c-0.247-0.148-0.491-0.276-0.73-0.383
	c-0.239-0.107-0.491-0.202-0.754-0.284V8.124h-2.622v3.215H9.707V8.124H7.085v14.395h6.752c0.082,0.247,0.181,0.491,0.297,0.73
	c0.115,0.239,0.256,0.491,0.42,0.754H7.085z M14.505,8.025c0.28,0,0.515-0.095,0.705-0.284c0.19-0.19,0.284-0.425,0.284-0.705
	c0-0.28-0.095-0.515-0.284-0.705c-0.19-0.19-0.425-0.284-0.705-0.284c-0.28,0-0.515,0.095-0.705,0.284s-0.284,0.425-0.284,0.705
	c0,0.28,0.095,0.515,0.284,0.705C13.99,7.93,14.225,8.025,14.505,8.025z"/>
</svg>
